<?xml version="1.0" standalone="no"?>
<!DOCTYPE svg PUBLIC "-//W3C//DTD SVG 20010904//EN"
 "http://www.w3.org/TR/2001/REC-SVG-20010904/DTD/svg10.dtd">
<svg version="1.0" xmlns="http://www.w3.org/2000/svg"
 width="1920.000000pt" height="1080.000000pt" viewBox="0 0 1920.000000 1080.000000"
 preserveAspectRatio="xMidYMid meet">

<g transform="translate(0.000000,1080.000000) scale(0.100000,-0.100000)"
fill="#000000" stroke="none">
<path d="M587 10618 c-14 -18 -39 -60 -57 -93 -18 -33 -36 -64 -41 -69 -16
-18 -9 -26 21 -26 26 0 35 7 58 46 15 26 39 64 55 85 l27 39 94 0 c94 0 95 0
120 -32 13 -18 22 -36 20 -40 -3 -4 -50 -8 -104 -8 -98 0 -99 0 -119 -29 l-21
-29 40 -35 c22 -18 40 -37 40 -40 0 -4 -49 -7 -110 -7 l-109 0 47 -82 c27 -46
59 -88 73 -95 35 -18 229 -17 255 1 20 14 124 187 124 206 0 6 -6 10 -12 10
-30 0 -61 -29 -97 -90 -21 -36 -49 -71 -62 -77 -13 -7 -57 -13 -97 -13 -68 0
-76 2 -103 29 -16 16 -29 34 -29 40 0 6 40 11 101 13 99 3 103 4 123 31 l21
29 -43 36 c-23 20 -42 39 -42 42 0 3 49 3 110 2 60 -2 110 -2 110 1 0 14 -84
155 -101 170 -18 14 -42 17 -145 17 l-123 0 -24 -32z"/>
<path d="M175 10106 c-25 -18 -13 -44 30 -62 19 -8 35 -19 35 -24 0 -18 -32
-24 -52 -11 -21 13 -38 7 -22 -8 20 -20 61 -23 78 -6 25 25 16 48 -24 61 -19
6 -36 16 -38 23 -6 17 28 26 49 12 11 -6 19 -7 19 -1 0 10 -32 30 -47 30 -5 0
-18 -6 -28 -14z"/>
<path d="M933 10110 c-45 -18 -41 -104 5 -121 28 -11 72 2 72 21 0 13 -17 13
-25 0 -11 -17 -44 -11 -55 11 -25 46 10 96 51 71 27 -17 40 -5 15 14 -22 16
-32 16 -63 4z"/>
<path d="M730 10053 c0 -52 3 -63 16 -63 14 0 14 3 4 15 -7 9 -10 29 -7 48 3
19 1 40 -4 48 -6 9 -9 -8 -9 -48z"/>
<path d="M292 10074 c-26 -18 -24 -62 4 -80 17 -12 23 -12 40 1 18 13 17 14
-10 12 -16 -1 -31 4 -33 11 -3 8 5 12 25 12 36 0 44 8 32 30 -14 25 -35 31
-58 14z m39 -19 c0 -5 -9 -11 -21 -13 -20 -3 -27 8 -13 22 10 9 34 3 34 -9z"/>
<path d="M389 10078 c-14 -6 -19 -17 -19 -48 0 -50 18 -53 22 -3 2 27 8 39 21
41 14 3 17 -4 17 -37 0 -51 18 -54 22 -3 2 29 7 37 23 37 16 0 21 -9 26 -40
l6 -40 2 42 c0 23 -4 45 -10 48 -15 10 -87 11 -110 3z"/>
<path d="M560 10082 c-20 -7 -30 -22 -30 -48 0 -27 32 -56 54 -48 23 9 20 21
-5 20 -12 -1 -24 5 -26 12 -3 8 6 12 26 12 24 0 31 4 31 20 0 22 -28 40 -50
32z m30 -27 c0 -8 -9 -15 -20 -15 -20 0 -26 11 -13 23 12 13 33 7 33 -8z"/>
<path d="M645 10077 c-21 -16 -13 -34 21 -47 35 -14 31 -34 -6 -26 -35 6 -39
1 -10 -14 14 -8 26 -8 40 0 29 15 25 36 -10 50 -36 15 -40 34 -5 28 28 -6 34
6 9 16 -20 8 -17 8 -39 -7z"/>
<path d="M790 10080 c-12 -8 -9 -10 13 -10 36 0 35 -15 -3 -29 -33 -11 -39
-31 -15 -51 12 -10 20 -9 40 4 31 21 35 70 6 86 -24 12 -22 12 -41 0z m40 -55
c0 -19 -24 -30 -41 -19 -9 5 -7 11 6 21 24 17 35 17 35 -2z"/>
<path d="M1150 10078 c-15 -6 -20 -16 -20 -48 0 -22 5 -40 10 -40 6 0 10 16 8
35 -2 39 4 50 27 42 9 -4 15 -19 15 -42 0 -47 18 -45 22 2 2 27 8 39 21 41 14
3 17 -4 17 -37 0 -23 5 -41 10 -41 13 0 13 77 0 85 -15 9 -87 11 -110 3z"/>
<path d="M1313 10079 c-20 -7 -23 -15 -23 -69 0 -36 4 -59 10 -55 5 3 6 13 3
22 -5 13 -2 15 20 9 21 -5 30 -1 43 18 28 44 -6 93 -53 75z m42 -28 c14 -44
-24 -70 -45 -30 -9 15 -8 24 1 35 16 20 37 18 44 -5z"/>
<path d="M1035 10066 c-3 -9 -7 -23 -10 -31 -5 -16 27 -55 44 -55 21 0 42 34
39 64 -3 27 -7 31 -36 34 -22 2 -34 -1 -37 -12z m59 -19 c16 -25 -16 -56 -38
-37 -19 15 -20 32 -4 48 15 15 28 11 42 -11z"/>
<path d="M820 9930 c0 -5 5 -10 11 -10 5 0 7 5 4 10 -3 6 -8 10 -11 10 -2 0
-4 -4 -4 -10z"/>
<path d="M1035 9930 c-3 -5 -1 -10 4 -10 6 0 11 5 11 10 0 6 -2 10 -4 10 -3 0
-8 -4 -11 -10z"/>
<path d="M545 9920 c-3 -6 1 -7 9 -4 18 7 21 14 7 14 -6 0 -13 -4 -16 -10z"/>
<path d="M635 9920 c-3 -5 -1 -10 4 -10 6 0 11 5 11 10 0 6 -2 10 -4 10 -3 0
-8 -4 -11 -10z"/>
<path d="M745 9920 c3 -5 8 -10 11 -10 2 0 4 5 4 10 0 6 -5 10 -11 10 -5 0 -7
-4 -4 -10z"/>
<path d="M860 9920 c-8 -5 -10 -10 -5 -10 6 0 17 5 25 10 8 5 11 10 5 10 -5 0
-17 -5 -25 -10z"/>
<path d="M978 9923 c7 -3 16 -2 19 1 4 3 -2 6 -13 5 -11 0 -14 -3 -6 -6z"/>
</g>
</svg>
