<?xml version="1.0" standalone="no"?>
<!DOCTYPE svg PUBLIC "-//W3C//DTD SVG 20010904//EN"
 "http://www.w3.org/TR/2001/REC-SVG-20010904/DTD/svg10.dtd">
<svg version="1.0" xmlns="http://www.w3.org/2000/svg"
 width="798.000000pt" height="788.000000pt" viewBox="0 0 798.000000 788.000000"
 preserveAspectRatio="xMidYMid meet">

<g transform="translate(0.000000,788.000000) scale(0.100000,-0.100000)"
fill="#000000" stroke="none">
<path d="M3180 6306 c-68 -19 -110 -41 -173 -94 -70 -58 -127 -135 -202 -272
-32 -58 -82 -145 -110 -195 -214 -366 -475 -833 -475 -850 0 -10 233 -5 299 6
82 14 136 44 192 107 40 44 254 393 405 660 33 57 85 132 117 167 105 116 164
125 798 117 383 -4 384 -4 434 -29 58 -28 102 -68 154 -138 54 -72 144 -243
137 -260 -5 -13 -85 -15 -599 -15 -327 0 -609 -3 -626 -6 -25 -5 -43 -22 -78
-71 -55 -77 -193 -312 -193 -329 0 -6 80 -79 177 -160 198 -167 306 -262 311
-275 2 -5 -294 -9 -697 -9 -386 0 -701 -3 -701 -6 0 -3 14 -27 32 -53 39 -57
138 -220 138 -227 0 -2 11 -21 23 -42 13 -20 57 -100 97 -177 207 -398 279
-510 382 -598 68 -58 139 -93 214 -106 83 -14 1238 -17 1328 -3 94 15 168 55
246 133 76 77 66 61 392 634 250 441 358 638 358 656 0 21 -303 -3 -373 -30
-52 -20 -98 -58 -142 -118 -62 -84 -290 -459 -378 -623 -92 -172 -162 -240
-282 -277 -54 -16 -104 -18 -540 -18 l-480 0 -53 29 c-55 31 -135 107 -176
167 -47 69 -127 229 -121 239 5 8 192 10 621 9 l614 -2 39 27 c62 43 143 153
215 292 26 49 33 71 25 80 -6 7 -70 61 -142 121 -222 181 -377 315 -377 324 0
5 307 9 705 9 487 0 705 3 705 11 0 5 -21 42 -47 82 -44 67 -253 435 -253 445
0 2 -32 63 -72 136 -195 359 -273 451 -438 515 l-65 26 -660 2 c-506 2 -670
-1 -705 -11z"/>
<path d="M5175 2999 c-78 -9 -119 -24 -177 -66 -96 -69 -138 -178 -138 -356 0
-134 19 -213 68 -283 75 -107 183 -151 345 -141 95 6 152 27 219 79 41 32 98
138 98 182 0 25 -1 26 -67 26 -78 0 -84 -3 -102 -47 -45 -111 -215 -139 -324
-53 -76 60 -107 231 -66 374 14 50 81 122 127 137 50 17 140 14 184 -4 21 -9
50 -34 68 -59 40 -55 63 -67 128 -68 51 0 52 0 52 30 0 45 -53 143 -97 179
-73 60 -183 84 -318 70z"/>
<path d="M426 2980 c-54 -21 -109 -68 -133 -114 -9 -18 -15 -57 -16 -102 0
-60 4 -79 26 -117 35 -59 71 -80 192 -112 195 -52 252 -79 269 -128 12 -33 -7
-80 -43 -104 -20 -14 -46 -18 -111 -18 -105 0 -145 19 -175 83 l-20 43 -75 -3
c-73 -3 -75 -4 -72 -28 10 -87 87 -182 168 -208 101 -33 279 -25 359 16 87 44
134 140 121 249 -13 107 -51 146 -196 192 -52 17 -99 31 -106 31 -28 0 -122
35 -151 57 -67 49 -28 142 66 158 90 15 160 -11 203 -75 23 -33 27 -35 91 -38
66 -3 67 -3 67 23 0 68 -79 168 -158 199 -62 24 -240 22 -306 -4z"/>
<path d="M3767 2973 c-13 -12 -7 -705 6 -743 17 -49 46 -61 152 -58 l90 3 3
48 c4 55 14 59 39 17 10 -17 39 -41 67 -55 100 -50 291 -27 361 43 57 56 65
90 65 286 0 178 0 179 -26 214 -44 56 -101 76 -224 76 -111 1 -145 -9 -198
-58 -25 -22 -52 -67 -52 -86 0 -20 130 -12 177 11 86 41 198 3 178 -61 -9 -28
-34 -39 -132 -56 -190 -33 -243 -79 -243 -210 l0 -67 -46 6 c-25 2 -50 9 -54
13 -10 10 -15 368 -6 383 4 5 20 12 36 16 20 4 36 17 46 37 22 42 12 58 -36
58 -47 0 -48 2 -54 90 -6 80 -25 100 -95 100 -26 0 -51 -3 -54 -7z m643 -547
c0 -106 -89 -175 -186 -145 -56 17 -69 94 -25 138 11 11 52 26 92 36 40 9 80
20 88 25 25 13 31 2 31 -54z"/>
<path d="M1165 2803 c-87 -20 -165 -91 -189 -174 -31 -105 -14 -291 33 -357
73 -102 209 -141 339 -98 78 26 162 109 162 161 0 12 -13 15 -64 15 -55 0 -68
-4 -101 -30 -32 -26 -46 -30 -96 -30 -71 0 -113 30 -129 91 -18 67 -15 68 209
71 l196 3 3 34 c2 19 -4 69 -14 110 -16 68 -23 82 -68 127 -38 39 -65 56 -105
68 -52 15 -131 19 -176 9z m160 -155 c24 -23 35 -43 37 -68 l3 -35 -119 -3
c-66 -1 -124 2 -129 7 -15 15 11 78 44 106 24 19 42 25 80 25 42 0 54 -5 84
-32z"/>
<path d="M1767 2800 c-60 -15 -134 -57 -156 -88 -33 -47 -40 -106 -41 -329 l0
-213 75 0 c71 0 75 1 76 23 0 12 0 90 -1 174 -2 197 5 256 36 287 30 29 76 38
126 24 72 -21 72 -23 78 -277 l5 -226 75 0 75 0 3 225 c2 214 3 225 24 247 49
52 145 50 188 -4 19 -24 20 -40 20 -223 0 -184 1 -199 21 -224 17 -22 28 -26
74 -26 33 0 55 5 58 13 2 6 3 111 2 232 -2 249 -6 269 -77 329 -75 65 -223 81
-331 37 l-57 -23 -49 21 c-56 24 -169 35 -224 21z"/>
<path d="M2755 2801 c-83 -22 -154 -86 -182 -166 -13 -36 -18 -80 -18 -155 0
-92 3 -112 26 -160 31 -67 79 -117 137 -142 55 -25 172 -26 230 -3 48 20 152
126 152 156 0 17 -7 19 -62 19 -55 -1 -67 -5 -98 -30 -30 -26 -42 -30 -98 -30
-59 0 -66 3 -93 31 -15 17 -31 46 -35 65 -12 65 -16 64 206 64 l200 0 0 63 c0
177 -96 284 -264 293 -39 2 -84 0 -101 -5z m170 -155 c30 -29 36 -41 33 -68
l-3 -33 -120 0 c-108 0 -120 2 -123 18 -11 58 54 117 130 117 39 0 52 -5 83
-34z"/>
<path d="M3317 2796 c-94 -25 -139 -77 -145 -167 -9 -118 43 -164 237 -210
114 -27 149 -51 134 -95 -7 -22 -19 -32 -52 -43 -75 -24 -181 10 -181 58 0 15
-12 19 -67 25 -39 4 -70 3 -76 -3 -15 -15 1 -96 24 -126 40 -50 94 -69 211
-73 128 -5 188 11 248 67 74 69 77 186 7 248 -32 28 -70 42 -244 93 -48 13
-76 27 -83 41 -48 88 131 110 209 25 21 -22 33 -26 83 -26 49 0 58 3 58 18 -1
29 -36 96 -66 124 -54 51 -194 71 -297 44z"/>
<path d="M5835 2801 c-87 -24 -133 -63 -172 -147 -26 -54 -28 -69 -28 -174 0
-99 3 -122 23 -165 31 -67 63 -98 133 -130 114 -51 255 -29 331 52 15 15 38
53 52 83 22 50 24 66 21 170 -4 161 -42 240 -141 289 -52 26 -164 37 -219 22z
m138 -133 c54 -29 77 -82 77 -179 0 -90 -15 -140 -51 -175 -24 -23 -38 -28
-78 -28 -96 0 -133 53 -135 194 -2 139 38 198 132 200 18 0 43 -5 55 -12z"/>
<path d="M6443 2800 c-93 -20 -163 -76 -182 -148 -8 -28 -15 -342 -12 -464 1
-16 11 -18 75 -18 l75 0 3 229 c3 258 4 261 81 282 32 8 48 7 81 -5 69 -26 71
-34 73 -271 1 -115 2 -216 2 -223 1 -10 20 -12 74 -10 l72 3 5 226 c6 255 7
258 81 281 32 9 46 8 84 -6 25 -10 51 -27 57 -39 8 -14 14 -94 18 -230 6 -243
5 -240 100 -235 l55 3 0 200 c0 110 -5 221 -11 248 -29 123 -113 180 -269 181
-73 0 -99 -4 -134 -22 -54 -27 -55 -27 -105 -2 -48 23 -162 33 -223 20z"/>
<path d="M7445 2795 c-27 -8 -53 -14 -56 -15 -3 0 -26 -13 -50 -30 -29 -19
-54 -46 -70 -77 -24 -48 -24 -50 -27 -387 -3 -271 -1 -341 10 -347 33 -21 105
-1 130 35 4 6 8 66 8 134 0 131 7 145 46 101 29 -33 77 -49 144 -49 75 0 125
24 173 82 92 114 102 344 18 463 -58 83 -208 125 -326 90z m165 -137 c11 -7
29 -31 39 -53 45 -96 34 -221 -25 -280 -30 -31 -41 -35 -85 -35 -93 0 -138 54
-145 174 -9 141 49 224 148 212 25 -2 56 -11 68 -18z"/>
<path d="M2024 1955 c-10 -26 10 -110 26 -110 20 0 27 104 8 116 -19 13 -28
11 -34 -6z"/>
<path d="M2122 1962 c-20 -13 -4 -124 17 -120 13 3 16 16 16 62 0 59 -8 73
-33 58z"/>
<path d="M3220 1960 c-10 -6 -14 -44 -14 -158 -1 -83 1 -153 4 -155 3 -3 14
-7 25 -9 17 -2 21 4 25 44 3 26 8 50 12 53 3 3 20 -17 38 -45 26 -41 37 -50
61 -50 16 0 29 2 29 5 0 2 -16 29 -35 59 -19 30 -35 58 -35 62 0 3 14 22 30
41 36 41 38 53 5 53 -22 0 -75 -44 -75 -62 0 -5 -7 -8 -15 -8 -12 0 -15 16
-15 84 0 86 -9 105 -40 86z"/>
<path d="M5927 1963 c-4 -3 -7 -17 -7 -30 0 -13 -7 -38 -16 -55 -18 -35 -6
-60 20 -39 28 23 56 93 45 113 -10 18 -30 24 -42 11z"/>
<path d="M6024 1962 c-6 -4 -14 -23 -17 -42 -4 -19 -10 -47 -13 -62 -9 -38 9
-35 41 6 37 49 28 125 -11 98z"/>
<path d="M2400 1800 l0 -160 30 0 30 0 0 73 c0 62 3 77 21 93 36 33 53 9 59
-82 5 -77 6 -79 33 -82 l27 -3 0 91 c0 84 -2 93 -26 117 -25 25 -52 27 -96 8
-16 -6 -18 -1 -18 49 0 56 0 56 -30 56 l-30 0 0 -160z"/>
<path d="M3780 1940 c-14 -26 -5 -40 26 -40 32 0 43 28 19 46 -25 19 -32 18
-45 -6z"/>
<path d="M4369 1953 c-5 -24 -7 -272 -3 -291 4 -19 10 -23 32 -20 26 3 27 5
30 73 3 70 19 105 48 105 21 0 27 -20 28 -96 1 -79 2 -80 31 -86 19 -3 20 3
23 91 3 86 1 96 -20 118 -23 24 -48 27 -90 8 -16 -6 -18 -1 -18 49 0 56 0 56
-30 56 -16 0 -31 -3 -31 -7z"/>
<path d="M4980 1799 l0 -160 28 3 27 3 3 158 3 157 -31 0 -30 0 0 -161z"/>
<path d="M5105 1946 c-25 -18 -13 -46 20 -46 30 0 43 24 25 45 -15 18 -21 19
-45 1z"/>
<path d="M5623 1953 c-7 -2 -13 -16 -13 -29 0 -20 5 -24 30 -24 25 0 30 4 30
24 0 18 -21 41 -33 35 -1 0 -8 -3 -14 -6z"/>
<path d="M2253 1913 c-7 -2 -13 -14 -13 -25 0 -12 -8 -27 -17 -33 -16 -12 -17
-15 -1 -32 10 -11 17 -42 20 -87 3 -57 8 -72 27 -87 28 -23 64 -25 81 -4 15
18 5 35 -20 35 -24 0 -33 29 -28 90 3 38 7 45 28 50 14 3 25 12 25 20 0 8 -11
17 -25 20 -18 4 -26 14 -28 33 -3 26 -19 33 -49 20z"/>
<path d="M4217 1914 c-4 -4 -7 -16 -7 -26 0 -10 -7 -21 -15 -24 -8 -4 -15 -14
-15 -24 0 -10 7 -20 15 -24 11 -4 15 -22 15 -76 0 -57 4 -74 21 -91 28 -28 83
-23 87 8 2 16 -3 22 -20 25 -21 3 -23 8 -23 68 0 60 2 65 23 68 32 5 30 42 -2
42 -19 0 -25 6 -28 28 -3 26 -34 43 -51 26z"/>
<path d="M5747 1914 c-4 -4 -7 -16 -7 -26 0 -10 -7 -21 -15 -24 -8 -4 -15 -14
-15 -24 0 -10 7 -20 15 -24 11 -4 15 -22 15 -76 0 -57 4 -74 21 -91 28 -28 83
-23 87 8 2 16 -3 22 -20 25 -21 3 -23 8 -23 68 0 60 2 65 23 68 30 4 30 39 0
44 -14 2 -24 12 -28 28 -6 24 -38 39 -53 24z"/>
<path d="M2684 1836 c-29 -29 -34 -41 -34 -82 0 -67 28 -111 76 -120 50 -9
108 6 112 30 4 17 0 18 -38 12 -31 -5 -49 -2 -67 9 -38 25 -23 40 48 45 l64 5
3 41 c3 36 -1 45 -28 68 -46 38 -93 35 -136 -8z m110 -32 c11 -29 6 -34 -39
-34 -46 0 -58 13 -33 38 17 17 65 15 72 -4z"/>
<path d="M3038 1854 c-55 -29 -45 -94 18 -120 65 -27 55 -77 -11 -57 -30 10
-37 9 -42 -3 -9 -23 10 -36 60 -41 39 -5 49 -2 71 20 45 45 32 84 -41 121 -49
25 -43 46 12 46 33 0 45 4 45 15 0 33 -65 45 -112 19z"/>
<path d="M3433 1863 c-19 -7 -17 -18 23 -123 29 -79 34 -103 29 -142 -6 -42
-5 -48 12 -48 28 0 40 12 51 50 6 19 27 82 47 139 36 99 37 105 20 117 -26 19
-40 4 -61 -66 -10 -33 -21 -60 -25 -60 -5 0 -18 27 -30 60 -22 60 -42 82 -66
73z"/>
<path d="M3793 1863 c-9 -3 -13 -35 -13 -114 l0 -109 30 0 30 0 0 109 c0 95
-2 109 -17 113 -10 3 -24 3 -30 1z"/>
<path d="M3922 1858 c-24 -12 -36 -42 -30 -79 2 -16 18 -30 51 -46 51 -26 55
-34 32 -53 -12 -10 -24 -11 -50 -2 -37 11 -49 4 -39 -21 12 -32 90 -36 128 -6
22 17 27 28 24 58 -3 32 -8 39 -50 60 -70 36 -62 58 20 51 28 -2 30 25 3 40
-25 13 -59 12 -89 -2z"/>
<path d="M4671 1857 c-35 -21 -50 -55 -51 -114 0 -69 27 -103 90 -110 57 -6
100 10 100 37 0 17 -4 19 -27 13 -42 -11 -84 -8 -94 8 -20 32 -10 39 55 39 68
0 76 6 76 55 0 60 -92 104 -149 72z m87 -64 c3 -21 -1 -23 -37 -23 -33 0 -41
4 -41 18 0 27 10 33 45 30 22 -2 31 -9 33 -25z"/>
<path d="M5112 1862 c-9 -6 -12 -36 -10 -113 3 -104 3 -104 28 -104 25 0 25 0
28 104 3 99 -3 121 -28 121 -3 0 -11 -4 -18 -8z"/>
<path d="M5301 1854 c-17 -12 -26 -13 -34 -5 -6 6 -19 11 -29 11 -16 0 -18
-11 -18 -111 l0 -110 28 3 c27 3 27 4 30 80 2 64 6 80 22 88 38 21 49 3 52
-83 3 -80 4 -82 29 -85 22 -3 27 2 33 29 3 17 6 53 6 79 0 54 20 81 48 63 13
-7 18 -30 22 -89 5 -77 6 -79 33 -82 l27 -3 0 91 c0 83 -2 93 -25 115 -28 29
-45 31 -91 9 -30 -14 -35 -14 -56 0 -29 20 -48 20 -77 0z"/>
<path d="M5620 1851 c-13 -26 -13 -194 1 -208 6 -6 19 -8 30 -6 17 5 19 15 19
113 0 89 -3 109 -16 114 -22 8 -22 8 -34 -13z"/>
</g>
</svg>
